<svg width="128" height="129" viewBox="0 0 128 129" fill="none" xmlns="http://www.w3.org/2000/svg">
<path d="M12 16.5938C5.375 16.5938 0 21.9688 0 28.5938C0 32.3688 1.775 35.9187 4.8 38.1937L59.2 78.9938C62.05 81.1188 65.95 81.1188 68.8 78.9938L123.2 38.1937C126.225 35.9187 128 32.3688 128 28.5938C128 21.9688 122.625 16.5938 116 16.5938H12ZM0 44.5938V96.5938C0 105.419 7.175 112.594 16 112.594H112C120.825 112.594 128 105.419 128 96.5938V44.5938L73.6 85.3938C67.9 89.6688 60.1 89.6688 54.4 85.3938L0 44.5938Z" fill="#B66EFF"/>
</svg>
