<svg xmlns="http://www.w3.org/2000/svg" xmlns:xlink="http://www.w3.org/1999/xlink" viewBox="0,0,256,256" width="250px" height="250px" fill-rule="nonzero"><g fill="#b66eff" fill-rule="nonzero" stroke="none" stroke-width="1" stroke-linecap="butt" stroke-linejoin="miter" stroke-miterlimit="10" stroke-dasharray="" stroke-dashoffset="0" font-family="none" font-weight="none" font-size="none" text-anchor="none" style="mix-blend-mode: normal"><g transform="scale(5.12,5.12)"><path d="M25,6c-11.579,0 -21,7.8225 -21,17.4375c0,6.124 3.94664,11.87139 10.30664,15.02539c-0.304,0.945 -1.19986,2.6157 -2.13086,3.9707c-0.241,0.351 -0.23247,0.8152 0.01953,1.1582c0.192,0.262 0.49269,0.4082 0.80469,0.4082c0.099,0 0.19692,-0.01592 0.29492,-0.04492c2.429,-0.75 5.04033,-2.20695 6.48633,-3.62695c0.90951,0.19373 1.83517,0.32558 2.76758,0.41406c2.39185,2.0135 5.69579,3.24805 9.29297,3.24805c1.17146,0 2.34647,-0.13725 3.49609,-0.4043c1.04645,0.72939 2.18382,1.00393 3.23438,1.36133c0.40146,0.13778 0.84616,0.00715 1.10932,-0.32586c0.26316,-0.33302 0.28745,-0.79587 0.0606,-1.15461c-0.35809,-0.56923 -0.57256,-0.80864 -0.76953,-1.26758c3.67674,-2.00709 5.97461,-5.44139 5.97461,-9.20508c0,-1.05201 -0.1857,-2.06092 -0.50977,-3.01758c0.99594,-2.02154 1.5625,-4.22337 1.5625,-6.53906c0,-9.615 -9.421,-17.4375 -21,-17.4375zM31.8418,24c6.22716,0 11.10547,4.14001 11.10547,8.99414c0,2.97553 -1.80154,5.77355 -4.98828,7.48828c-0.00065,0.00065 -0.0013,0.0013 -0.00195,0.00195c-0.63101,0.34047 -0.88302,1.01489 -0.88477,1.70508c-0.17607,-0.08716 -0.48006,-0.14857 -0.625,-0.25195c-0.00065,-0.00065 -0.0013,-0.0013 -0.00195,-0.00195c-0.31738,-0.22464 -0.70584,-0.35156 -1.09961,-0.35156c-0.14619,0 -0.29308,0.01726 -0.43555,0.05078c-1.00915,0.23646 -2.04165,0.35547 -3.06836,0.35547c-6.22716,0 -11.10547,-4.14196 -11.10547,-8.99609c0.00009,-4.85413 4.87831,-8.99414 11.10547,-8.99414zM26.70313,31.05664c-0.71546,-0.01466 -1.38293,0.35865 -1.74495,0.97592c-0.36203,0.61728 -0.36203,1.38205 0,1.99932c0.36203,0.61728 1.0295,0.99058 1.74495,0.97592c0.71546,0.01466 1.38293,-0.35865 1.74495,-0.97592c0.36203,-0.61728 0.36203,-1.38205 0,-1.99932c-0.36203,-0.61728 -1.0295,-0.99058 -1.74495,-0.97592zM32.23633,31.05664c-0.71546,-0.01466 -1.38293,0.35865 -1.74495,0.97592c-0.36203,0.61728 -0.36203,1.38205 0,1.99932c0.36203,0.61728 1.0295,0.99058 1.74495,0.97592c0.71546,0.01466 1.38293,-0.35865 1.74495,-0.97592c0.36203,-0.61728 0.36203,-1.38205 0,-1.99932c-0.36203,-0.61728 -1.0295,-0.99058 -1.74495,-0.97592zM37.76953,31.05664c-0.71546,-0.01466 -1.38293,0.35865 -1.74495,0.97592c-0.36203,0.61728 -0.36203,1.38205 0,1.99932c0.36203,0.61728 1.0295,0.99058 1.74495,0.97592c0.71546,0.01466 1.38293,-0.35865 1.74495,-0.97592c0.36203,-0.61728 0.36203,-1.38205 0,-1.99932c-0.36203,-0.61728 -1.0295,-0.99058 -1.74495,-0.97592z"></path></g></g></svg>